HIERARCHY
ROOT Hips
{
	OFFSET -0.001795 -0.223333 0.028219
	CHANNELS 6 Xposition Yposition Zposition Zrotation Yrotation Xrotation 
	JOINT LeftUpLeg
	{
		OFFSET 0.069520 -0.091406 -0.006815
		CHANNELS 3 Zrotation Yrotation Xrotation
		JOINT LeftLeg
		{
			OFFSET 0.034277 -0.375199 -0.004496
			CHANNELS 3 Zrotation Yrotation Xrotation
			JOINT LeftFoot
			{
				OFFSET -0.013596 -0.397961 -0.043693
				CHANNELS 3 Zrotation Yrotation Xrotation
				JOINT LeftToe
				{
					OFFSET 0.026358 -0.055791 0.119288
					CHANNELS 3 Zrotation Yrotation Xrotation
					End Site
					{
						OFFSET 0.000000 0.000000 0.000000
					}
				}
			}
		}
	}
	JOINT RightUpLeg
	{
		OFFSET -0.067670 -0.090522 -0.004320
		CHANNELS 3 Zrotation Yrotation Xrotation
		JOINT RightLeg
		{
			OFFSET -0.038290 -0.382569 -0.008850
			CHANNELS 3 Zrotation Yrotation Xrotation
			JOINT RightFoot
			{
				OFFSET 0.015774 -0.398415 -0.042312
				CHANNELS 3 Zrotation Yrotation Xrotation
				JOINT RightToe
				{
					OFFSET -0.025372 -0.048144 0.123348
					CHANNELS 3 Zrotation Yrotation Xrotation
					End Site
					{
						OFFSET 0.000000 0.000000 0.000000
					}
				}
			}
		}
	}
	JOINT Spine
	{
		OFFSET -0.002533 0.108963 -0.026696
		CHANNELS 3 Zrotation Yrotation Xrotation
		JOINT Spine1
		{
			OFFSET 0.005487 0.135180 0.001092
			CHANNELS 3 Zrotation Yrotation Xrotation
			JOINT Spine2
			{
				OFFSET 0.001457 0.052922 0.025425
				CHANNELS 3 Zrotation Yrotation Xrotation
				JOINT Neck
				{
					OFFSET -0.002778 0.213870 -0.042857
					CHANNELS 3 Zrotation Yrotation Xrotation
					JOINT Head
					{
						OFFSET 0.005152 0.064970 0.051349
						CHANNELS 3 Zrotation Yrotation Xrotation
						End Site
						{
							OFFSET 0.000000 0.000000 0.000000
						}
					}
				}
				JOINT LeftShoulder
				{
					OFFSET 0.078845 0.121749 -0.034090
					CHANNELS 3 Zrotation Yrotation Xrotation
					JOINT LeftArm
					{
						OFFSET 0.090977 0.030469 -0.008868
						CHANNELS 3 Zrotation Yrotation Xrotation
						JOINT LeftForeArm
						{
							OFFSET 0.259612 -0.012772 -0.027456
							CHANNELS 3 Zrotation Yrotation Xrotation
							JOINT LeftHand
							{
								OFFSET 0.249234 0.008986 -0.001171
								CHANNELS 3 Zrotation Yrotation Xrotation
								End Site
								{
									OFFSET 0.000000 0.000000 0.000000
								}
							}
						}
					}
				}
				JOINT RightShoulder
				{
					OFFSET -0.081759 0.118833 -0.038615
					CHANNELS 3 Zrotation Yrotation Xrotation
					JOINT RightArm
					{
						OFFSET -0.096012 0.032551 -0.009143
						CHANNELS 3 Zrotation Yrotation Xrotation
						JOINT RightForeArm
						{
							OFFSET -0.253742 -0.013329 -0.021401
							CHANNELS 3 Zrotation Yrotation Xrotation
							JOINT RightHand
							{
								OFFSET -0.255298 0.007772 -0.005559
								CHANNELS 3 Zrotation Yrotation Xrotation
								End Site
								{
									OFFSET 0.000000 0.000000 0.000000
								}
							}
						}
					}
				}
			}
		}
	}
}
MOTION
Frames: 8
Frame Time: 0.050000
-0.113064 0.941555 0.231664 0.231632 -0.484503 -1.227014 9.350030 -0.081656 -0.928194 -4.252410 0.470178 -0.745952 10.091464 20.450635 23.139569 0.000000 0.000000 0.000000 -10.597990 0.278052 -6.824239 2.990981 -0.244350 5.148441 -3.903838 -13.515797 19.286598 0.000000 0.000000 0.000000 3.969619 -2.103749 27.630461 -3.916095 1.484606 -30.680579 -3.597610 7.232415 25.658657 15.783597 -4.011555 -38.499740 0.000000 0.000000 0.000000 -4.388582 -15.391128 5.186703 -29.039923 -29.533456 1.165931 41.697597 -49.138002 -18.593373 0.000000 0.000000 0.000000 21.546993 0.889586 1.294606 28.173320 34.424973 2.067877 -44.542516 47.102546 -15.523767 0.000000 0.000000 0.000000 
-0.112027 0.942098 0.234752 0.041750 -0.306211 -1.613818 9.530794 -0.070732 -0.092986 -4.311932 0.473462 -1.179105 9.931693 20.280478 23.017552 0.000000 0.000000 0.000000 -10.323039 0.258386 -5.327540 2.757380 -0.234681 3.686619 -3.887618 -13.494089 19.506454 0.000000 0.000000 0.000000 3.888509 -1.972435 26.042538 -3.537278 1.419614 -29.987117 -3.870816 7.287192 25.638679 15.467642 -4.008898 -37.641706 0.000000 0.000000 0.000000 -4.417202 -15.858932 5.340462 -29.052828 -29.372293 1.142977 40.821958 -47.937819 -17.705237 0.000000 0.000000 0.000000 21.944874 1.253813 1.560045 28.787800 35.075740 2.328452 -45.470740 44.517236 -14.811619 0.000000 0.000000 0.000000 
-0.111162 0.942230 0.237661 -0.056913 -0.121863 -1.705488 9.662577 -0.072997 0.134209 -4.440241 0.484628 -1.133964 9.837322 20.182923 22.811181 0.000000 0.000000 0.000000 -10.295180 0.243713 -4.594897 2.795938 -0.252485 2.986146 -3.936167 -13.554997 19.596809 0.000000 0.000000 0.000000 3.872214 -1.908064 25.119600 -3.989284 1.515503 -29.584454 -3.507780 6.928029 25.657794 14.925462 -3.832263 -37.343760 0.000000 0.000000 0.000000 -5.019083 -15.902350 5.394914 -29.280037 -29.087081 1.137632 41.685021 -46.818787 -17.588104 0.000000 0.000000 0.000000 21.989938 1.330442 1.530360 29.460921 35.585877 2.606053 -45.916650 42.385375 -14.105626 0.000000 0.000000 0.000000 
-0.110402 0.941763 0.240543 -0.206921 -0.188701 -1.900244 9.695568 -0.064873 0.583521 -4.290158 0.470113 -1.178368 9.911446 20.269797 22.523904 0.000000 0.000000 0.000000 -10.060513 0.238749 -4.001426 2.582495 -0.230099 2.623674 -3.901100 -13.487431 19.423434 0.000000 0.000000 0.000000 3.944629 -1.835704 24.030838 -3.995028 1.518998 -29.285279 -3.714407 7.436922 25.910746 14.826657 -3.846919 -36.706356 0.000000 0.000000 0.000000 -5.425479 -15.981036 5.394804 -29.020875 -29.043585 1.088781 43.282292 -45.774723 -18.023360 0.000000 0.000000 0.000000 22.091176 1.428971 1.732104 29.680917 36.127972 2.739307 -47.033247 40.240296 -13.515978 0.000000 0.000000 0.000000 
-0.109911 0.941265 0.243301 -0.333474 -0.030449 -2.019785 9.872105 -0.067470 0.872691 -4.392521 0.478804 -1.193242 9.860534 20.223076 22.184117 0.000000 0.000000 0.000000 -10.069077 0.224912 -3.497945 2.779432 -0.261119 2.356542 -3.982427 -13.571936 19.284580 0.000000 0.000000 0.000000 4.065202 -1.799381 23.139878 -4.362393 1.606733 -28.475312 -3.487804 7.570670 25.464944 14.615429 -3.761584 -36.228106 0.000000 0.000000 0.000000 -5.764415 -15.934502 5.349852 -29.228397 -28.898637 1.141303 45.562902 -44.888564 -18.780810 0.000000 0.000000 0.000000 21.617928 1.455428 1.764151 30.279616 36.358721 2.997972 -48.574642 38.662569 -13.306462 0.000000 0.000000 0.000000 
-0.109695 0.940507 0.245896 -0.501708 0.104451 -2.063639 10.170534 -0.075149 0.891450 -4.592168 0.499250 -0.887407 9.849033 20.222809 21.772005 0.000000 0.000000 0.000000 -9.889785 0.214444 -2.936995 2.758212 -0.267892 1.814090 -4.066986 -13.660767 19.105821 0.000000 0.000000 0.000000 4.199978 -1.762318 22.239060 -4.555709 1.649096 -28.408617 -3.504815 7.930694 25.514344 14.608291 -3.763150 -35.837382 0.000000 0.000000 0.000000 -5.973687 -15.959874 5.317541 -29.022811 -28.943091 1.131214 47.093976 -44.105920 -19.258182 0.000000 0.000000 0.000000 21.487606 1.688404 2.013201 29.734485 36.840806 2.986865 -49.033244 37.056375 -12.718854 0.000000 0.000000 0.000000 
-0.109689 0.939898 0.248282 -0.489074 0.180743 -2.259879 10.274588 -0.074488 1.101359 -4.779955 0.519709 -0.624199 9.832659 20.208154 21.465730 0.000000 0.000000 0.000000 -9.984484 0.200922 -2.487552 2.890783 -0.286533 1.711748 -4.117511 -13.699983 18.845579 0.000000 0.000000 0.000000 4.250957 -1.744656 21.896886 -4.813922 1.710523 -28.228760 -3.484423 8.026587 25.194838 14.594677 -3.736584 -35.736250 0.000000 0.000000 0.000000 -5.977823 -16.044376 5.326505 -28.574842 -28.738354 1.075002 48.712806 -43.505581 -19.811437 0.000000 0.000000 0.000000 21.099305 1.979756 2.181805 29.235526 37.203570 3.015272 -49.191388 35.895235 -12.289555 0.000000 0.000000 0.000000 
-0.109725 0.938864 0.250309 -0.596889 0.197258 -2.413915 10.563141 -0.076570 0.959628 -5.049204 0.555660 0.162031 9.898247 20.291640 21.006553 0.000000 0.000000 0.000000 -9.898371 0.197131 -2.471521 2.941575 -0.285816 2.236926 -4.189369 -13.755058 18.403698 0.000000 0.000000 0.000000 4.500197 -1.780201 21.741874 -5.051585 1.758019 -28.363688 -3.756302 8.416090 25.115093 14.698714 -3.799811 -35.342405 0.000000 0.000000 0.000000 -5.796938 -16.650230 5.507974 -27.529982 -28.948088 1.008037 49.557882 -42.429295 -19.834299 0.000000 0.000000 0.000000 20.692066 2.363921 2.478637 28.106197 37.710146 2.894907 -48.648685 34.916659 -11.724602 0.000000 0.000000 0.000000 
